<?xml version="1.0" encoding="utf-8"?>
<!-- Generator: Adobe Illustrator 21.1.0, SVG Export Plug-In . SVG Version: 6.00 Build 0)  -->
<!DOCTYPE svg PUBLIC "-//W3C//DTD SVG 1.1//EN" "http://www.w3.org/Graphics/SVG/1.1/DTD/svg11.dtd">
<svg version="1.1" id="Layer_1" xmlns="http://www.w3.org/2000/svg" xmlns:xlink="http://www.w3.org/1999/xlink" x="0px" y="0px"
	 viewBox="0 0 123.5 55" style="enable-background:new 0 0 123.5 55;" xml:space="preserve">
<path d="M122.2,0.1H1.3C0.6,0.1,0,0.6,0,1.3v52.5C0,54.5,0.6,55,1.3,55h120.9c0.7,0,1.2-0.6,1.2-1.2V1.3
	C123.4,0.6,122.9,0.1,122.2,0.1z M75.4,26.3l45.6-23v48.4L75.4,26.3z M117,2.6L72.8,24.8l-2.7,1.3l-3.8,1.9c-2.9,1.4-6.2,1.4-9,0
	l-3.8-1.9l-2.7-1.3L6.5,2.6H117z M2.5,3.3l45.6,23L2.5,51.7V3.3z M6,52.6l44.7-24.9l5.4,2.7c1.8,0.9,3.7,1.4,5.6,1.4
	c1.9,0,3.8-0.5,5.6-1.4l5.4-2.7l44.7,24.9H6z"/>
</svg>
